<svg width="49" height="59" viewBox="0 0 49 59" fill="none" xmlns="http://www.w3.org/2000/svg">
<path fill-rule="evenodd" clip-rule="evenodd" d="M0 58.4616C3.814 52.5131 8.9738 46.075 14.4882 41.9872C17.5767 39.6977 20.2953 38.5328 22.6298 38.0451C24.9845 37.5532 27.9248 37.5483 31.6685 38.3979C37.5398 39.7302 43.6931 42.6922 48.9442 45.9949C44.6906 41.7919 40.2686 36.9133 37.2136 32.757C35.263 30.1035 33.9193 27.717 33.2715 24.6156C32.8263 22.4828 32.7241 19.3327 33.6245 15.5769C35.0878 9.4738 38.8243 4.1284 43.8177 0C39.3797 4.2521 34.6359 8.4653 30.5798 11.7305C28.5483 13.3659 26.0753 15.1823 22.4382 15.6726C20.4016 15.9474 18.3169 15.7444 15.5471 14.8713C10.47 13.27 4.8422 9.9649 0.4186 6.8254C2.5064 10.408 4.7506 13.8498 6.9571 16.6656C8.2646 18.3344 10.1174 21.067 10.8991 24.807C11.4458 27.423 11.4007 30.1994 10.5462 33.846C8.8353 41.1462 4.0263 51.2316 0 58.4616Z" fill="#AFF724"/>
</svg>
